<?xml version="1.0" standalone="no"?>
<!DOCTYPE svg PUBLIC "-//W3C//DTD SVG 20010904//EN"
 "http://www.w3.org/TR/2001/REC-SVG-20010904/DTD/svg10.dtd">
<svg version="1.0" xmlns="http://www.w3.org/2000/svg"
 width="1000.000000pt" height="1000.000000pt" viewBox="0 0 1000.000000 1000.000000"
 preserveAspectRatio="xMidYMid meet">
<metadata>
Created by potrace 1.14, written by Peter Selinger 2001-2017
</metadata>
<g transform="translate(0.000000,1000.000000) scale(0.100000,-0.100000)"
fill="#000000" stroke="none">
<path d="M4620 9859 c-638 -54 -1214 -214 -1780 -495 -495 -245 -875 -518
-1271 -914 -227 -226 -306 -315 -460 -520 -188 -249 -317 -458 -468 -760 -263
-528 -411 -1026 -487 -1640 -21 -175 -30 -698 -15 -898 92 -1192 560 -2249
1367 -3081 834 -861 1946 -1382 3144 -1471 173 -13 537 -13 710 0 1579 118
2994 986 3815 2341 402 662 633 1398 696 2211 23 300 4 799 -41 1093 -116 750
-409 1477 -843 2090 -232 327 -616 735 -919 977 -777 619 -1667 977 -2648
1063 -177 16 -635 18 -800 4z m227 -376 c124 -34 240 -149 283 -278 18 -55 21
-81 17 -153 -3 -48 -10 -107 -15 -132 -6 -25 -17 -83 -26 -130 -8 -47 -18 -94
-20 -105 -3 -11 -20 -94 -37 -185 -32 -175 -72 -382 -89 -465 -5 -27 -17 -88
-26 -135 -8 -47 -19 -103 -24 -125 -5 -22 -12 -60 -15 -85 -4 -25 -11 -61 -15
-80 -5 -19 -16 -75 -25 -125 -9 -49 -21 -108 -25 -130 -5 -22 -16 -80 -25
-130 -9 -49 -20 -108 -25 -130 -5 -22 -23 -114 -40 -205 -17 -91 -35 -185 -40
-210 -5 -25 -23 -119 -40 -210 -17 -91 -35 -183 -40 -205 -5 -22 -17 -82 -27
-133 l-18 -93 25 -46 c45 -83 43 -83 452 -83 197 0 358 -2 358 -5 0 -2 -15
-28 -33 -57 -77 -124 -92 -179 -92 -348 0 -128 3 -153 24 -210 48 -131 84
-189 176 -281 l66 -66 -78 -79 c-84 -84 -134 -168 -169 -279 -15 -47 -19 -91
-19 -200 0 -122 3 -149 24 -205 38 -107 90 -191 168 -270 69 -71 83 -90 65
-90 -5 0 -27 -16 -50 -36 -56 -48 -144 -182 -178 -274 -26 -70 -28 -85 -29
-225 0 -133 3 -157 24 -215 70 -194 190 -330 366 -415 50 -24 115 -49 145 -56
41 -9 315 -14 1055 -18 l1000 -6 58 -23 c81 -33 168 -116 210 -201 30 -62 32
-73 32 -171 0 -99 -2 -109 -33 -173 -38 -78 -107 -150 -179 -189 -109 -60 -65
-58 -1576 -58 -1587 0 -1635 2 -1982 70 -250 50 -489 130 -735 247 -82 39
-123 58 -245 113 -94 43 -337 124 -480 160 -100 25 -171 40 -340 69 -84 15
-264 31 -440 40 -170 8 -204 19 -267 89 -74 82 -69 -49 -66 1657 l3 1530 27
41 c15 23 44 56 65 73 65 54 109 61 370 61 265 0 347 12 477 67 151 64 282
173 372 308 55 82 64 103 225 522 78 202 149 388 159 413 10 25 137 358 284
740 146 382 270 704 275 715 5 11 16 40 26 65 9 25 22 56 27 70 6 14 48 123
94 243 46 120 97 237 113 261 43 62 105 114 178 148 104 49 201 55 320 21z
m2305 -3584 c81 -18 156 -57 215 -115 204 -199 144 -533 -117 -658 l-65 -31
-628 -3 c-698 -3 -700 -3 -800 61 -132 85 -196 220 -184 390 11 166 123 300
291 348 55 16 119 18 648 18 402 1 604 -3 640 -10z m149 -1109 c226 -43 377
-282 314 -495 -48 -160 -165 -270 -323 -304 -68 -14 -1336 -15 -1402 -1 -113
25 -233 118 -278 214 -52 109 -56 258 -9 358 49 109 171 206 285 229 59 11
1352 10 1413 -1z m-113 -1114 c70 -19 155 -71 199 -121 20 -22 49 -69 67 -105
27 -58 31 -75 31 -155 0 -70 -5 -104 -23 -151 -41 -107 -128 -194 -244 -243
l-63 -26 -630 0 c-598 0 -633 1 -680 19 -117 46 -192 114 -243 223 -24 52 -27
69 -27 168 0 99 3 116 27 168 51 107 151 192 268 223 70 20 1246 19 1318 0z"/>
<path d="M3433 5405 c-57 -29 -91 -64 -126 -129 l-22 -41 -3 -1048 c-1 -697 1
-1061 8 -1087 16 -60 70 -131 124 -165 46 -28 57 -30 141 -30 84 0 95 2 141
30 53 33 107 104 124 163 14 51 14 2083 0 2134 -17 59 -71 130 -124 163 -42
26 -61 30 -130 33 -71 3 -87 0 -133 -23z m207 -96 c39 -24 59 -49 77 -94 17
-43 17 -2057 0 -2100 -53 -136 -225 -157 -307 -38 l-25 37 0 1051 0 1051 25
37 c51 75 156 101 230 56z"/>
<path d="M2765 5106 c-56 -25 -115 -86 -142 -143 -17 -35 -18 -91 -18 -798 0
-853 -5 -792 76 -880 58 -63 125 -89 215 -83 115 8 203 73 239 177 23 68 23
982 -1 1005 -21 21 -47 20 -67 -2 -15 -17 -17 -65 -17 -482 0 -442 -1 -466
-20 -504 -41 -85 -154 -121 -234 -74 -22 13 -49 36 -60 51 -21 28 -21 33 -21
792 0 759 0 764 21 792 77 104 239 91 294 -23 18 -36 20 -61 20 -223 0 -106 4
-190 10 -202 12 -22 59 -26 78 -7 19 19 16 392 -4 450 -50 147 -227 221 -369
154z"/>
<path d="M4113 5104 c-29 -14 -68 -44 -87 -66 -68 -79 -66 -51 -66 -873 0
-842 -4 -802 80 -885 133 -134 347 -97 438 75 26 49 27 54 30 278 3 196 1 231
-12 252 -10 15 -26 25 -40 25 -47 0 -51 -17 -56 -271 -5 -221 -6 -240 -26
-266 -77 -104 -239 -91 -294 23 -19 39 -20 62 -20 769 0 707 1 730 20 769 41
85 154 121 234 74 22 -13 49 -36 60 -51 20 -28 21 -41 26 -476 5 -480 5 -481
56 -481 14 0 30 10 39 24 14 21 16 77 13 462 -4 490 -1 473 -76 556 -79 88
-212 114 -319 62z"/>
<path d="M2119 4817 c-88 -33 -149 -94 -177 -176 -17 -48 -15 -913 1 -958 22
-60 72 -117 128 -148 46 -26 65 -30 129 -30 60 0 85 5 123 25 57 29 102 76
131 139 20 45 21 60 21 496 0 436 -1 451 -21 496 -47 101 -132 161 -239 166
-33 2 -76 -3 -96 -10z m175 -116 c18 -11 42 -38 54 -59 22 -39 22 -44 22 -476
0 -482 2 -466 -64 -524 -82 -72 -218 -38 -262 65 -20 47 -20 869 0 916 17 39
61 81 101 95 40 15 110 7 149 -17z"/>
<path d="M4824 4818 c-60 -20 -127 -80 -159 -143 l-30 -59 0 -451 0 -451 30
-59 c73 -143 237 -194 377 -118 53 29 103 87 125 146 8 23 11 162 11 482 0
320 -3 459 -11 482 -39 105 -133 174 -246 179 -36 2 -80 -2 -97 -8z m137 -99
c19 -7 47 -23 63 -38 56 -51 56 -53 56 -516 0 -465 0 -468 -58 -517 -86 -72
-196 -57 -256 35 l-26 41 0 442 0 441 26 39 c32 46 49 61 89 73 42 13 67 13
106 0z"/>
</g>
</svg>
